<svg width="180" height="51" viewBox="0 0 180 51" fill="none" xmlns="http://www.w3.org/2000/svg">
<path d="M171.705 6.96042V8.31112H93.7663V6.96042H171.705ZM93.7663 43.767H171.705V42.4163H93.7663V43.767ZM93.8084 30.3866V34.1432C93.8084 37.4356 95.4111 39.0817 98.7428 39.0817H99.5863C102.918 39.0817 104.605 37.4356 104.605 34.0588V30.1333C104.605 27.8118 103.972 26.5455 102.032 25.1104L98.2789 22.409C97.3933 21.7759 96.8872 21.185 96.8872 19.8343V16.4575C96.8872 15.0646 97.5198 14.4315 98.9115 14.4315H99.4598C100.852 14.4315 101.484 15.0646 101.484 16.4575V18.8635H104.479V16.5419C104.479 13.2496 102.876 11.6034 99.5442 11.6034H98.785C95.4532 11.6034 93.7663 13.2496 93.7663 16.6264V19.8765C93.7663 22.0714 94.3567 23.4643 96.3389 24.8994L100.092 27.643C100.978 28.2761 101.442 28.8671 101.442 30.2178V34.2699C101.442 35.6628 100.809 36.2959 99.4176 36.2959H98.8694C97.4776 36.2959 96.845 35.6628 96.845 34.2699V30.3866H93.8084ZM112.407 38.8285V14.7269H116.456V11.8567H105.28V14.7269H109.329V38.8285H112.407ZM117.595 11.8989V34.0588C117.595 37.3933 119.24 39.0817 122.614 39.0817H123.584C126.915 39.0817 128.602 37.4356 128.602 34.0588V11.8989H125.524V34.2276C125.524 35.6206 124.891 36.2537 123.499 36.2537H122.782C121.39 36.2537 120.758 35.6206 120.758 34.2276V11.8989H117.595ZM135.603 38.8285H130.542V11.8567H135.603C139.652 11.8567 141.55 13.7983 141.55 17.8082V32.8347C141.592 36.929 139.652 38.8285 135.603 38.8285ZM138.513 17.8082C138.513 15.74 137.543 14.6847 135.477 14.6847H133.621V36.0004H135.477C137.543 36.0004 138.513 34.9452 138.513 32.8769V17.8082ZM143.448 11.8989V38.8707H146.526V11.8989H143.448ZM153.359 39.0817C150.027 39.0817 148.34 37.4356 148.34 34.0588V16.6686C148.34 13.334 149.985 11.6457 153.359 11.6457H154.497C157.829 11.6457 159.516 13.2918 159.516 16.6686V34.0588C159.516 37.3933 157.871 39.0817 154.497 39.0817H153.359ZM153.485 36.2537H154.413C155.805 36.2537 156.437 35.6206 156.437 34.2276V16.4997C156.437 15.1068 155.805 14.4737 154.413 14.4737H153.485C152.093 14.4737 151.461 15.149 151.461 16.4997V34.2276C151.461 35.6206 152.093 36.2537 153.485 36.2537ZM160.866 30.3866V34.1432C160.866 37.4356 162.468 39.0817 165.8 39.0817H166.644C169.975 39.0817 171.662 37.4356 171.662 34.0588V30.1333C171.662 27.8118 171.03 26.5455 169.09 25.1104L165.336 22.409C164.451 21.7759 163.944 21.185 163.944 19.8343V16.4575C163.944 15.0646 164.577 14.4315 165.969 14.4315H166.517C167.909 14.4315 168.541 15.0646 168.541 16.4575V18.8635H171.536V16.5419C171.536 13.2496 169.933 11.6034 166.601 11.6034H165.842C162.511 11.6034 160.824 13.2496 160.824 16.6264V19.8765C160.824 22.0714 161.414 23.4643 163.396 24.8994L167.15 27.643C168.035 28.2761 168.499 28.8671 168.499 30.2178V34.2699C168.499 35.6628 167.867 36.2959 166.475 36.2959H165.927C164.535 36.2959 163.902 35.6628 163.902 34.2699V30.3866H160.866Z" fill="white"/>
<rect x="9" y="8.10001" width="79.2" height="34.2" fill="white"/>
<path d="M7.47749 6.96042V43.8091H89.1693V6.96042H7.47749ZM76.7279 16.7952H72.3839V22.8733H76.7279V27.8118H72.3839V33.9743H76.7279V38.8284H67.5339V14.3893L63.6538 38.8284H58.0024C58.0024 38.8284 55.0924 21.5226 55.0924 21.4804C55.5563 24.2662 53.785 27.1787 52.2667 28.3605L55.3455 38.8284H50.5797L48.2602 29.9223L47.1214 30.0911V38.8284H37.9274L37.3791 34.6919H33.5835L33.0352 38.8284H23.5881V25.828L21.395 38.8284H18.8224L16.6293 25.828V38.8284H11.7371V11.8567H17.8946L20.0455 25.7858L22.2807 11.8567H28.4382V36.6335L32.1495 11.8567H38.6022L42.187 35.7894V11.8567H47.1214C51.5498 11.8567 53.5741 15.1068 54.1646 16.2465L53.6163 11.8567H58.5507L60.786 28.2761L63.0212 11.8567H76.6857V16.7952H76.7279ZM86.5124 38.8284H77.5714V11.8989H82.3793V34.0166H86.5124V38.8284ZM50.3267 20.9739C50.3267 23.1688 49.3567 24.5195 48.218 25.0682C47.8384 25.237 47.4588 25.3214 47.0793 25.3214V16.6685H47.1214C47.501 16.6685 50.3267 16.7952 50.3267 20.9739ZM35.4391 18.8634L36.8309 30.3866H34.0895L35.4391 18.8634Z" fill="#E50B14"/>
</svg>
